P2
# CREATOR: GIMP PNM Filter Version 1.1
44 72
255
255
255
255
255
253
255
255
255
255
255
255
255
255
255
255
255
255
255
255
255
253
253
255
255
255
255
255
253
252
255
253
255
255
255
255
255
255
255
255
255
255
255
255
255
255
255
250
255
253
3
9
20
3
253
255
255
255
255
255
255
255
255
255
255
254
255
255
255
255
255
255
255
255
255
255
255
255
255
255
255
255
255
255
255
255
255
255
255
255
252
252
237
0
18
0
22
25
0
0
130
255
255
253
255
252
255
255
255
255
255
252
250
255
255
255
255
255
254
251
255
255
255
255
255
255
255
255
255
255
255
255
255
255
254
251
0
1
30
209
68
12
249
3
0
243
252
246
253
255
255
247
255
248
255
255
255
255
250
255
255
255
250
255
255
255
255
255
255
255
255
255
255
255
255
255
255
255
248
62
3
255
255
252
219
250
247
209
8
49
255
252
87
1
4
98
247
255
255
255
255
255
255
255
255
255
255
255
255
255
255
255
255
255
255
255
255
255
255
255
255
255
20
11
55
255
255
255
255
253
247
200
5
19
13
12
5
1
0
4
0
243
249
198
0
7
255
255
255
255
255
246
253
255
255
255
255
255
255
255
255
255
255
255
255
255
9
16
114
255
255
255
251
255
249
60
12
26
0
3
249
255
255
253
6
0
17
7
21
29
2
71
99
87
252
250
242
248
255
255
255
254
255
255
250
255
255
247
255
255
0
27
11
255
255
255
253
227
0
19
18
2
255
252
251
255
248
248
248
255
6
17
19
5
21
3
0
3
4
106
255
255
249
251
255
255
255
255
255
255
250
248
248
255
255
0
128
252
186
78
225
0
13
55
255
255
255
252
250
247
255
176
103
48
23
2
2
253
252
255
253
139
0
0
245
253
254
255
253
255
255
255
255
255
255
255
255
253
255
12
14
247
169
3
6
31
23
93
251
255
255
255
247
250
253
3
5
17
7
255
248
255
252
251
242
252
255
1
13
252
246
255
254
255
255
255
255
255
255
255
255
253
251
0
21
20
9
44
5
13
0
250
255
250
255
255
79
0
0
2
0
0
255
246
255
255
255
251
255
255
255
0
4
152
255
252
255
255
255
255
255
255
255
255
255
255
248
255
144
0
7
2
251
4
0
245
251
131
21
0
7
0
241
255
255
255
248
255
40
0
6
5
5
5
4
23
27
11
17
49
255
255
255
252
255
255
1
255
248
252
255
254
254
254
250
250
164
3
81
252
80
2
0
10
208
254
252
255
255
255
80
0
9
18
23
21
21
21
21
23
23
24
14
6
2
102
92
100
0
0
0
44
255
252
255
255
255
255
254
246
159
9
79
0
13
7
255
255
239
251
255
255
41
2
21
23
36
26
31
24
24
24
26
24
22
23
17
28
23
20
13
20
10
25
6
255
255
255
255
255
251
255
255
250
175
11
11
5
0
255
253
249
249
250
253
0
14
22
25
23
23
23
24
24
24
24
24
24
24
24
24
24
24
24
24
24
24
26
3
255
248
255
255
255
255
255
255
255
0
15
4
249
255
255
255
249
29
9
16
37
26
24
23
24
24
24
23
24
24
24
24
24
24
24
24
24
24
24
24
24
27
23
4
248
248
255
255
255
255
255
255
9
17
12
249
255
255
255
227
3
19
19
17
4
13
16
17
13
22
25
25
24
24
24
24
24
24
24
24
24
24
24
24
24
25
30
10
243
255
255
255
255
255
255
255
5
13
1
254
247
255
178
0
14
29
0
2
0
0
0
3
30
26
28
23
26
23
24
24
24
24
24
24
24
24
24
23
25
15
18
138
255
254
255
255
255
255
251
255
255
7
0
248
255
245
8
25
24
16
199
255
253
254
244
255
255
34
0
24
24
24
24
24
24
24
24
24
24
24
25
22
23
3
95
254
255
255
255
255
255
255
255
255
254
0
4
255
248
249
8
32
19
15
175
255
255
255
255
255
255
255
85
10
23
26
23
24
24
24
24
24
24
24
24
23
26
2
83
244
255
255
255
251
255
255
255
255
250
167
7
134
255
0
22
18
24
12
178
254
251
255
255
253
255
249
255
243
0
16
21
19
23
29
18
21
23
24
17
4
0
253
250
255
255
255
255
255
255
255
255
255
255
175
3
139
0
15
26
24
24
14
163
250
255
254
255
250
253
252
255
255
65
0
22
17
30
20
22
25
22
28
0
255
236
252
240
255
255
255
255
255
255
255
255
255
255
250
5
5
18
22
37
24
20
0
248
241
198
195
248
243
255
255
252
255
255
255
9
15
21
32
0
8
29
9
253
255
255
255
240
255
255
255
255
255
255
255
255
255
251
253
2
10
27
20
24
23
14
0
255
4
3
0
3
219
255
253
255
255
255
22
3
15
16
11
244
16
22
17
254
248
255
255
255
255
255
255
255
255
255
255
255
255
255
249
255
255
5
16
27
21
32
20
4
0
72
252
145
0
0
255
253
206
7
15
255
253
211
10
0
10
18
27
255
247
253
252
255
255
255
255
255
255
255
255
255
255
255
255
255
153
24
10
22
20
18
10
57
253
245
254
255
41
3
255
253
1
8
255
255
255
255
255
7
29
4
14
255
255
255
255
255
255
255
255
255
255
255
255
255
255
255
255
254
6
12
42
0
30
14
151
250
246
255
255
245
255
0
1
164
18
43
249
255
254
251
240
6
5
154
251
255
255
255
255
255
255
255
255
255
255
255
255
255
255
255
242
255
0
26
255
251
0
0
141
251
255
0
219
254
251
112
14
21
15
202
245
0
1
255
247
9
124
255
255
255
255
255
255
255
255
255
255
255
255
255
255
255
255
255
248
255
7
96
254
240
0
0
142
248
253
0
243
248
255
0
20
26
6
195
253
0
5
255
255
0
255
255
255
255
255
255
255
247
248
255
252
255
255
255
255
255
255
255
255
255
62
1
255
249
0
17
9
252
255
254
251
245
245
0
1
65
36
253
255
249
253
252
255
0
5
252
126
255
255
255
255
255
254
253
255
255
255
255
255
255
255
255
252
255
5
0
199
255
6
19
0
253
246
255
252
255
3
3
252
2
0
210
252
255
250
249
255
4
116
0
1
255
255
255
255
255
255
255
255
255
255
255
255
255
255
255
255
255
255
5
0
253
238
209
1
0
160
149
22
5
0
78
255
254
0
19
155
157
156
5
0
0
255
77
0
255
255
255
255
255
253
255
255
255
255
255
255
255
255
255
255
252
255
0
2
246
255
177
251
185
0
0
0
98
255
248
255
255
254
0
2
0
0
0
19
6
254
252
0
255
255
255
255
253
253
255
255
255
255
255
255
255
255
255
253
246
255
217
2
247
223
0
250
250
251
251
255
255
255
254
255
255
255
255
255
255
254
249
156
5
251
246
0
255
255
255
255
255
255
255
255
255
255
255
255
255
255
255
255
253
255
255
0
255
255
0
125
253
243
237
255
252
12
87
96
81
255
255
252
248
250
249
185
2
255
89
13
246
255
255
255
255
255
250
255
255
255
255
255
255
255
255
255
255
255
255
26
255
246
0
142
247
255
249
252
239
0
8
3
3
255
247
254
255
249
241
0
27
1
8
10
255
255
255
255
254
255
255
249
250
255
245
255
255
253
255
255
255
255
255
7
0
8
26
1
255
0
0
243
255
255
250
255
243
252
255
255
13
254
206
0
25
11
0
175
255
255
255
255
255
255
255
255
255
255
255
255
255
255
255
255
255
255
255
8
3
14
26
0
249
0
21
4
8
255
255
254
0
0
5
9
0
255
199
7
0
255
255
255
252
255
255
255
253
255
255
255
255
255
255
255
255
255
255
255
255
255
255
255
252
248
0
0
255
253
193
0
29
0
0
0
11
6
2
14
255
255
242
5
255
255
255
254
248
255
255
255
255
255
255
255
255
255
255
255
255
255
255
255
255
255
255
255
255
255
0
13
176
250
249
0
4
0
10
0
4
116
255
255
255
255
93
0
255
255
255
255
251
255
255
255
255
255
255
255
255
255
255
255
255
255
255
255
255
255
255
244
255
255
1
24
50
255
255
255
255
255
254
253
255
254
255
255
255
255
2
1
255
255
255
255
249
255
247
255
255
255
255
255
255
255
255
255
255
255
255
255
255
255
255
247
255
255
253
0
12
255
251
249
255
76
187
255
253
253
255
255
255
254
3
214
255
255
255
255
255
255
255
255
255
255
255
255
255
255
255
255
255
255
255
255
255
255
252
255
255
251
255
4
0
255
255
255
252
4
3
8
207
243
253
255
255
116
0
246
251
255
255
255
255
255
255
255
255
255
255
255
255
255
255
255
255
255
255
255
255
255
255
255
255
255
255
129
5
142
255
249
239
255
255
254
255
252
249
253
255
6
0
253
252
249
255
255
255
255
255
255
255
255
255
255
255
255
255
255
255
255
255
255
255
255
255
255
243
255
250
255
3
138
255
252
255
255
255
255
255
255
249
255
70
101
0
250
255
255
255
255
255
255
255
255
255
255
255
255
255
255
255
255
255
255
255
255
255
255
255
255
255
255
254
255
5
12
243
255
255
250
255
255
255
254
255
252
0
0
250
255
255
255
255
255
255
255
255
255
255
255
255
255
255
255
255
255
255
255
255
255
255
255
255
255
255
255
251
255
0
4
79
255
255
246
254
254
255
251
71
7
0
0
249
255
255
255
246
255
255
255
255
255
255
255
255
255
255
255
255
255
255
255
255
255
255
255
252
255
255
255
254
255
255
0
0
6
14
5
15
0
0
13
20
1
253
249
252
255
255
255
255
254
255
255
255
255
255
255
249
255
255
255
255
255
255
255
255
255
255
255
250
255
255
255
255
255
255
183
207
12
21
10
218
180
6
22
22
0
255
255
255
255
255
255
255
255
255
255
255
255
255
255
251
250
255
255
255
255
255
255
255
255
255
251
255
255
255
255
255
255
255
240
254
6
0
245
255
250
255
0
3
254
255
249
255
255
255
255
255
255
255
255
255
255
255
255
255
255
255
255
255
255
255
255
255
255
255
255
255
255
255
255
255
255
255
255
248
12
8
247
255
253
255
0
0
255
255
255
255
255
255
255
255
255
255
255
255
255
255
255
255
255
255
255
255
255
255
255
255
255
255
255
255
255
255
255
255
255
255
255
106
14
4
250
255
252
252
64
3
43
245
255
255
255
255
255
255
255
255
255
255
255
255
255
255
254
255
255
255
255
255
255
255
255
255
255
255
255
255
255
255
254
207
103
8
25
26
11
217
210
218
12
4
3
0
0
8
33
255
255
255
255
255
255
255
255
255
249
255
255
255
255
255
255
255
255
255
255
255
255
255
255
255
255
255
255
3
17
7
3
2
7
0
2
0
0
29
45
14
15
17
222
255
255
255
255
255
250
254
255
255
248
255
255
255
255
255
255
255
255
255
255
255
255
255
255
255
255
255
255
255
3
255
255
252
255
58
47
255
255
254
255
240
0
3
255
255
255
255
255
255
255
255
255
255
254
255
255
255
255
255
255
255
255
255
249
255
255
255
255
255
255
255
255
255
4
255
246
255
254
255
255
255
254
247
247
215
5
0
255
255
248
255
255
255
255
255
255
255
255
255
253
255
255
252
255
255
255
255
255
255
255
255
255
255
255
255
255
255
7
3
181
89
176
170
175
175
180
198
1
24
13
1
255
253
251
255
255
255
255
255
255
255
252
255
246
255
255
255
255
255
255
255
255
255
255
255
255
255
255
255
255
255
0
4
249
255
255
255
254
255
255
255
255
211
6
0
255
255
255
255
255
255
255
255
255
255
255
255
255
255
255
255
255
255
255
255
255
255
255
255
255
255
255
255
255
255
10
3
255
254
254
254
253
244
255
255
255
221
3
0
253
254
255
255
255
255
255
255
255
255
255
255
255
255
255
255
255
255
255
255
255
255
255
255
255
255
255
255
255
255
4
7
255
254
254
254
253
246
255
253
255
218
1
0
253
255
255
255
255
255
255
255
255
255
255
255
254
255
255
255
255
255
255
255
255
255
255
255
255
255
255
255
255
255
0
5
249
254
253
252
255
255
253
249
253
16
1
2
254
248
255
255
255
255
255
255
255
255
255
254
255
255
255
255
255
255
255
255
255
255
255
255
255
255
253
255
255
255
0
198
255
254
254
255
114
215
255
249
255
250
253
4
255
255
255
255
255
255
255
255
255
252
255
255
254
255
255
255
255
255
255
255
255
247
255
255
255
255
255
255
255
255
0
199
249
253
255
253
248
252
245
251
255
253
189
4
0
255
246
255
255
255
255
242
254
255
254
255
255
255
255
255
255
255
255
255
255
255
255
255
255
255
255
255
255
255
5
3
255
255
255
255
255
255
255
255
255
255
255
0
255
248
255
255
255
255
255
255
255
255
255
255
255
255
255
255
255
255
255
255
255
255
255
255
255
255
255
255
255
255
2
53
255
255
255
247
254
254
255
250
255
255
254
1
0
255
255
255
255
255
255
255
255
255
255
255
255
255
255
255
255
255
255
255
255
255
255
255
255
255
255
255
255
255
1
89
255
251
255
255
252
251
255
255
255
255
251
6
18
250
252
255
255
255
255
255
255
255
255
255
255
255
255
255
255
255
255
255
255
255
255
253
255
255
255
255
255
255
0
0
248
255
250
255
56
0
255
69
70
253
255
216
5
7
253
255
255
255
255
255
255
249
255
251
255
255
255
255
255
255
255
255
255
255
255
255
255
255
255
253
255
255
8
94
255
253
255
254
252
255
250
255
255
255
255
255
0
3
125
255
255
255
255
255
255
245
251
255
253
255
255
255
255
255
255
255
255
255
255
252
255
255
255
255
255
255
0
180
255
255
255
255
255
253
255
255
255
255
255
244
255
8
21
255
255
255
255
251
255
255
255
255
255
255
255
255
255
255
255
255
252
254
255
253
255
255
255
255
253
255
3
202
255
177
138
143
133
254
254
255
255
255
255
251
246
4
21
255
255
255
251
249
253
250
255
255
255
255
255
255
255
255
255
254
255
255
255
255
255
255
255
255
255
255
0
13
0
7
10
14
7
6
97
240
69
253
255
148
255
15
9
231
255
255
255
255
255
255
255
255
255
255
255
255
255
255
255
255
255
255
255
255
255
255
255
255
255
255
7
17
11
8
3
0
6
7
18
1
255
255
255
237
121
3
175
247
255
255
251
255
255
255
255
255
255